<svg width="11" height="13" viewBox="0 0 11 13" fill="none" xmlns="http://www.w3.org/2000/svg">
<path d="M10.6484 2.04688L9.45312 0.851562C9.24219 0.640625 8.96094 0.5 8.65625 0.5H4.625C3.99219 0.5 3.5 1.01562 3.5 1.625V2.75H1.625C0.992188 2.75 0.5 3.26562 0.5 3.875V11.375C0.5 12.0078 0.992188 12.5 1.625 12.5H6.875C7.48438 12.5 8 12.0078 8 11.375V10.25H9.875C10.4844 10.25 11 9.75781 11 9.125V2.84375C11 2.53906 10.8594 2.25781 10.6484 2.04688ZM6.73438 11.375H1.76562C1.67188 11.375 1.625 11.3281 1.625 11.2344V4.01562C1.625 3.94531 1.67188 3.875 1.76562 3.875H3.5V9.125C3.5 9.75781 3.99219 10.25 4.625 10.25H6.875V11.2344C6.875 11.3281 6.80469 11.375 6.73438 11.375ZM9.73438 9.125H4.76562C4.67188 9.125 4.625 9.07812 4.625 8.98438V1.76562C4.625 1.69531 4.67188 1.625 4.76562 1.625H7.25V3.6875C7.25 4.01562 7.48438 4.25 7.8125 4.25H9.875V8.98438C9.875 9.07812 9.80469 9.125 9.73438 9.125ZM9.875 3.125H8.375V1.625H8.58594C8.63281 1.625 8.65625 1.64844 8.67969 1.67188L9.82812 2.82031C9.85156 2.84375 9.875 2.86719 9.875 2.91406V3.125Z" fill="#736E7D"/>
</svg>
