<svg width="48" height="48" viewBox="0 0 48 48" fill="none" xmlns="http://www.w3.org/2000/svg">
<circle opacity="0.3" cx="24" cy="24" r="24" fill="#736E7D"/>
<path d="M30.75 14.5312C32.25 15.5938 33.4375 16.9688 34.3125 18.6562C35.1875 20.3125 35.625 22.0938 35.625 24C35.625 26.0938 35.0938 28.0312 34.0312 29.8125C33 31.5938 31.5938 33 29.8125 34.0312C28.0625 35.0938 26.125 35.625 24 35.625C21.9062 35.625 19.9688 35.0938 18.1875 34.0312C16.4062 33 14.9844 31.6094 13.9219 29.8594C12.8906 28.0781 12.375 26.125 12.375 24C12.375 22.0938 12.8125 20.3125 13.6875 18.6562C14.5625 17 15.75 15.625 17.25 14.5312C17.5312 14.3438 17.8281 14.2969 18.1406 14.3906C18.4844 14.4531 18.7344 14.625 18.8906 14.9062L19.6406 16.2188C19.7656 16.4688 19.7969 16.7344 19.7344 17.0156C19.6719 17.2969 19.5312 17.5156 19.3125 17.6719C18.3125 18.4219 17.5312 19.3438 16.9688 20.4375C16.4062 21.5312 16.125 22.7188 16.125 24C16.125 25.4062 16.4688 26.7188 17.1562 27.9375C17.875 29.1562 18.8281 30.125 20.0156 30.8438C21.2344 31.5312 22.5469 31.875 23.9531 31.875C25.3906 31.875 26.7188 31.5312 27.9375 30.8438C29.1562 30.125 30.1094 29.1562 30.7969 27.9375C31.5156 26.7188 31.875 25.3906 31.875 23.9531C31.875 22.7344 31.5938 21.5781 31.0312 20.4844C30.4688 19.3594 29.6875 18.4219 28.6875 17.6719C28.4688 17.5156 28.3281 17.2969 28.2656 17.0156C28.2031 16.7344 28.2344 16.4688 28.3594 16.2188L29.1094 14.9062C29.2656 14.625 29.5 14.4531 29.8125 14.3906C30.1562 14.2969 30.4688 14.3438 30.75 14.5312ZM25.875 24.375V13.125C25.875 12.8125 25.7656 12.5469 25.5469 12.3281C25.3281 12.1094 25.0625 12 24.75 12H23.25C22.9375 12 22.6719 12.1094 22.4531 12.3281C22.2344 12.5469 22.125 12.8125 22.125 13.125V24.375C22.125 24.6875 22.2344 24.9531 22.4531 25.1719C22.6719 25.3906 22.9375 25.5 23.25 25.5H24.75C25.0625 25.5 25.3281 25.3906 25.5469 25.1719C25.7656 24.9531 25.875 24.6875 25.875 24.375Z" fill="#37333D"/>
</svg>
