<svg width="12" height="12" viewBox="0 0 12 12" fill="none" xmlns="http://www.w3.org/2000/svg">
<path fill-rule="evenodd" clip-rule="evenodd" d="M11.3337 5.99996V6C11.3336 8.94527 8.94619 11.3329 6.001 11.3333H6.00032C3.05482 11.3333 0.667015 8.9455 0.666992 6V5.99996C0.666992 3.05444 3.05481 0.666626 6.00032 0.666626H6.001C8.94621 0.66699 11.3337 3.05466 11.3337 5.99996ZM10.801 6C10.801 8.65097 8.65197 10.8 6.001 10.8H6.00032C3.34967 10.7996 1.201 8.65074 1.201 6V5.99996C1.20102 3.34924 3.34968 1.20037 6.00032 1.2L6.001 1.2C8.65195 1.2 10.801 3.34901 10.801 5.99996V6ZM7.04963 4.02087C6.89025 4.16896 6.69837 4.24301 6.47397 4.24301C6.25003 4.24301 6.05679 4.16896 5.89605 4.02087C5.73622 3.87278 5.6554 3.69263 5.6554 3.48223C5.6554 3.27228 5.73667 3.09168 5.89605 2.94224C6.05679 2.79234 6.25003 2.71784 6.47397 2.71784C6.69837 2.71784 6.8907 2.79234 7.04963 2.94224C7.20901 3.09168 7.28893 3.27228 7.28893 3.48223C7.28893 3.69308 7.20901 3.87278 7.04963 4.02087ZM7.11085 8.93235C6.83634 9.04071 6.61782 9.12288 6.45392 9.17977C6.29048 9.23666 6.1004 9.26511 5.88413 9.26511C5.55183 9.26511 5.29312 9.18384 5.10891 9.02175C4.9247 8.85966 4.83304 8.65423 4.83304 8.40455C4.83304 8.30748 4.83981 8.20815 4.85336 8.10701C4.86735 8.00588 4.88948 7.8921 4.91973 7.76432L5.26332 6.55069C5.29357 6.43421 5.31976 6.32359 5.34053 6.22065C5.36129 6.1168 5.37123 6.02154 5.37123 5.93485C5.37123 5.78044 5.33917 5.67208 5.27551 5.61112C5.21095 5.55017 5.08949 5.52037 4.90844 5.52037C4.81995 5.52037 4.72874 5.53347 4.63528 5.56101C4.54273 5.58945 4.46236 5.61519 4.39644 5.64047L4.48719 5.26663C4.71204 5.17498 4.9274 5.09642 5.13284 5.0314C5.33827 4.96548 5.53241 4.93297 5.71527 4.93297C6.04532 4.93297 6.29996 5.01334 6.47921 5.17227C6.65755 5.33165 6.7474 5.53888 6.7474 5.79353C6.7474 5.84636 6.74108 5.93936 6.72889 6.0721C6.71669 6.2053 6.69367 6.32675 6.66026 6.43827L6.31847 7.64829C6.29048 7.74536 6.26565 7.85643 6.24307 7.98059C6.22095 8.10475 6.21011 8.19957 6.21011 8.26323C6.21011 8.42396 6.24578 8.53368 6.31802 8.59192C6.38936 8.65017 6.51442 8.67951 6.69141 8.67951C6.77494 8.67951 6.8684 8.66461 6.97405 8.63572C7.0788 8.60682 7.15465 8.58109 7.20251 8.55896L7.11085 8.93235Z" fill="#736E7D"/>
</svg>
