<svg width="15" height="14" viewBox="0 0 15 14" fill="none" xmlns="http://www.w3.org/2000/svg">
<path d="M11.5625 7.70898V12.4062C11.5625 12.7448 11.444 13.0326 11.207 13.2695C10.9701 13.5065 10.6823 13.625 10.3438 13.625H1.40625C1.06771 13.625 0.779948 13.5065 0.542969 13.2695C0.30599 13.0326 0.1875 12.7448 0.1875 12.4062V3.46875C0.1875 3.13021 0.30599 2.84245 0.542969 2.60547C0.779948 2.36849 1.06771 2.25 1.40625 2.25H7.70312C7.8724 2.25 8.01628 2.30924 8.13477 2.42773L8.54102 2.83398C8.65951 2.95247 8.71875 3.09635 8.71875 3.26562C8.71875 3.4349 8.65951 3.57878 8.54102 3.69727C8.42253 3.81576 8.27865 3.875 8.10938 3.875H1.8125V12H9.9375V8.11523C9.9375 7.94596 9.99674 7.80208 10.1152 7.68359L10.5215 7.27734C10.64 7.15885 10.7839 7.09961 10.9531 7.09961C11.1224 7.09961 11.2663 7.15885 11.3848 7.27734C11.5033 7.39583 11.5625 7.53971 11.5625 7.70898ZM14.8125 1.56445C14.8125 1.31055 14.7194 1.09049 14.5332 0.904297C14.347 0.718099 14.127 0.625 13.873 0.625H9.83594C9.63281 0.625 9.46354 0.692708 9.32812 0.828125C9.19271 0.963542 9.125 1.13281 9.125 1.33594V1.79297C9.125 1.99609 9.19271 2.16536 9.32812 2.30078C9.48047 2.4362 9.6582 2.50391 9.86133 2.50391L11.5625 2.45312L5.24023 8.72461C5.12174 8.8431 5.0625 8.98698 5.0625 9.15625C5.0625 9.32552 5.12174 9.4694 5.24023 9.58789L5.84961 10.1973C5.9681 10.3158 6.11198 10.375 6.28125 10.375C6.45052 10.375 6.5944 10.3158 6.71289 10.1973L12.9844 3.875L12.9336 5.57617C12.9336 5.7793 13.0013 5.95703 13.1367 6.10938C13.2721 6.24479 13.4414 6.3125 13.6445 6.3125H14.1016C14.3047 6.3125 14.474 6.24479 14.6094 6.10938C14.7448 5.97396 14.8125 5.80469 14.8125 5.60156V1.56445Z" fill="white"/>
</svg>
